<?xml version="1.0" standalone="no"?>
<svg
  width="600"
  height="600"
  viewBox="0 0 600 600"
  xmlns="http://www.w3.org/2000/svg"
>
  <g transform="translate(300,300)">
    
    <path d="M74.2,-138.9C81.3,-110.8,62,-65.2,80.1,-34.1C98.1,-3,153.5,13.5,158.8,27.6C164.2,41.6,119.5,53.2,98.3,94.4C77,135.7,79.2,206.5,53.9,239.3C28.6,272.2,-24.1,267.1,-52.8,233.9C-81.5,200.8,-86.1,139.7,-110.7,101.4C-135.4,63.2,-180,47.7,-208.4,14.8C-236.8,-18.2,-248.9,-68.7,-220.4,-88C-191.9,-107.2,-122.7,-95.3,-79.2,-106.7C-35.7,-118.2,-17.8,-153.1,7.8,-165.3C33.5,-177.5,67,-167,74.2,-138.9Z" fill="#2B3595" />
   <text id="Your_Only_Limit_Is_Your_Mind" data-name="Your Only Limit Is  Your Mind" class="cls-1" transform="translate(548.258 960.135) scale(1.511)">Your Only Limit Is <tspan x="0" dy="150">Your Mind</tspan></text>
  </g>
</svg>
    